<svg xmlns="http://www.w3.org/2000/svg" width="350" height="490" viewBox="0 0 350 490" fill="#fff">
  <!-- Original stardust: an open center, fine peripheral clusters and a few soft glints. -->
  <defs>
    <radialGradient id="halo"><stop stop-color="#fff" stop-opacity=".55"/><stop offset=".3" stop-color="#fff" stop-opacity=".18"/><stop offset="1" stop-color="#fff" stop-opacity="0"/></radialGradient>
    <g id="glint"><circle r="5" fill="url(#halo)"/><path d="M0-3.2Q.45-.45 2.5 0Q.45.45 0 3.2Q-.45.45-2.5 0Q-.45-.45 0-3.2Z"/><circle r=".65"/></g>
  </defs>
  <g opacity=".7">
    <circle cx="61.3" cy="240.5" r="0.83" opacity="0.76"/>
    <circle cx="307.2" cy="215.3" r="0.40" opacity="0.50"/>
    <circle cx="138.0" cy="310.3" r="0.68" opacity="0.36"/>
    <circle cx="110.7" cy="451.8" r="0.50" opacity="0.46"/>
    <circle cx="16.7" cy="77.1" r="0.84" opacity="0.82"/>
    <circle cx="122.9" cy="33.9" r="0.66" opacity="0.80"/>
    <circle cx="111.3" cy="405.7" r="0.69" opacity="0.68"/>
    <circle cx="239.5" cy="227.5" r="0.40" opacity="0.55"/>
    <circle cx="133.4" cy="237.7" r="0.39" opacity="0.56"/>
    <circle cx="132.3" cy="463.0" r="0.68" opacity="0.39"/>
    <circle cx="284.4" cy="418.2" r="0.43" opacity="0.48"/>
    <circle cx="244.0" cy="119.8" r="0.81" opacity="0.40"/>
    <circle cx="307.1" cy="104.2" r="0.75" opacity="0.54"/>
    <circle cx="273.4" cy="56.1" r="0.84" opacity="0.53"/>
    <circle cx="284.3" cy="377.7" r="0.52" opacity="0.85"/>
    <circle cx="27.9" cy="70.6" r="0.79" opacity="0.43"/>
    <circle cx="58.9" cy="350.6" r="0.84" opacity="0.80"/>
    <circle cx="311.0" cy="392.3" r="0.59" opacity="0.79"/>
    <circle cx="35.9" cy="133.6" r="0.56" opacity="0.60"/>
    <circle cx="281.9" cy="116.2" r="0.63" opacity="0.61"/>
    <circle cx="331.0" cy="180.7" r="0.46" opacity="0.75"/>
    <circle cx="290.7" cy="447.5" r="0.52" opacity="0.84"/>
    <circle cx="156.8" cy="58.0" r="0.56" opacity="0.55"/>
    <circle cx="35.5" cy="118.6" r="0.46" opacity="0.73"/>
    <circle cx="245.1" cy="180.5" r="0.77" opacity="0.77"/>
    <circle cx="326.1" cy="244.0" r="0.81" opacity="0.36"/>
    <circle cx="67.4" cy="170.3" r="0.63" opacity="0.38"/>
    <circle cx="47.9" cy="467.5" r="0.61" opacity="0.38"/>
    <circle cx="307.2" cy="248.3" r="0.74" opacity="0.72"/>
    <circle cx="20.7" cy="417.3" r="0.71" opacity="0.79"/>
    <circle cx="322.9" cy="159.5" r="0.56" opacity="0.79"/>
    <circle cx="106.0" cy="128.3" r="0.68" opacity="0.51"/>
    <circle cx="318.3" cy="358.7" r="0.39" opacity="0.61"/>
    <circle cx="73.8" cy="298.9" r="0.49" opacity="0.41"/>
    <circle cx="270.0" cy="428.5" r="0.46" opacity="0.35"/>
    <circle cx="224.2" cy="206.9" r="0.44" opacity="0.72"/>
    <circle cx="314.9" cy="281.2" r="0.46" opacity="0.67"/>
    <circle cx="319.5" cy="314.7" r="0.35" opacity="0.55"/>
    <circle cx="32.3" cy="345.9" r="0.83" opacity="0.47"/>
    <circle cx="327.7" cy="397.6" r="0.78" opacity="0.77"/>
    <circle cx="137.6" cy="218.5" r="0.41" opacity="0.39"/>
    <circle cx="53.6" cy="110.9" r="0.64" opacity="0.61"/>
    <circle cx="287.9" cy="52.7" r="0.77" opacity="0.38"/>
    <circle cx="91.9" cy="256.8" r="0.82" opacity="0.82"/>
    <circle cx="185.9" cy="413.8" r="0.61" opacity="0.63"/>
    <circle cx="174.1" cy="421.5" r="0.53" opacity="0.68"/>
    <circle cx="228.4" cy="79.0" r="0.67" opacity="0.61"/>
    <circle cx="228.2" cy="135.7" r="0.72" opacity="0.71"/>
    <circle cx="240.9" cy="323.0" r="0.66" opacity="0.49"/>
    <circle cx="51.8" cy="308.0" r="0.43" opacity="0.56"/>
    <circle cx="253.5" cy="160.6" r="0.62" opacity="0.44"/>
    <circle cx="215.0" cy="57.9" r="0.40" opacity="0.44"/>
    <circle cx="67.5" cy="142.0" r="0.80" opacity="0.60"/>
    <circle cx="260.6" cy="380.6" r="0.77" opacity="0.79"/>
    <circle cx="146.2" cy="453.6" r="0.54" opacity="0.40"/>
    <circle cx="225.5" cy="106.1" r="0.55" opacity="0.59"/>
    <circle cx="169.2" cy="84.8" r="0.48" opacity="0.70"/>
    <circle cx="329.7" cy="228.0" r="0.74" opacity="0.72"/>
    <circle cx="288.5" cy="170.7" r="0.67" opacity="0.41"/>
    <circle cx="221.8" cy="37.5" r="0.53" opacity="0.84"/>
    <circle cx="58.3" cy="430.5" r="0.59" opacity="0.53"/>
    <circle cx="18.1" cy="326.2" r="0.75" opacity="0.47"/>
    <circle cx="24.5" cy="208.2" r="0.45" opacity="0.66"/>
    <circle cx="263.6" cy="29.5" r="0.75" opacity="0.41"/>
    <circle cx="68.5" cy="102.1" r="0.39" opacity="0.69"/>
    <circle cx="167.1" cy="108.1" r="0.56" opacity="0.66"/>
    <circle cx="103.8" cy="28.8" r="0.79" opacity="0.76"/>
    <circle cx="284.6" cy="72.3" r="0.45" opacity="0.55"/>
    <circle cx="81.1" cy="454.6" r="0.43" opacity="0.52"/>
    <circle cx="81.3" cy="371.0" r="0.40" opacity="0.56"/>
    <circle cx="300.4" cy="273.3" r="0.70" opacity="0.60"/>
    <circle cx="242.4" cy="366.8" r="0.53" opacity="0.76"/>
    <circle cx="124.0" cy="324.9" r="0.68" opacity="0.58"/>
    <circle cx="67.1" cy="161.2" r="0.47" opacity="0.50"/>
    <circle cx="28.1" cy="447.3" r="0.38" opacity="0.66"/>
    <circle cx="273.2" cy="303.2" r="0.43" opacity="0.48"/>
    <circle cx="149.0" cy="433.1" r="0.76" opacity="0.55"/>
    <circle cx="313.6" cy="24.4" r="0.57" opacity="0.68"/>
    <circle cx="269.5" cy="257.8" r="0.72" opacity="0.44"/>
    <circle cx="113.4" cy="108.8" r="0.54" opacity="0.74"/>
    <circle cx="141.5" cy="40.3" r="0.65" opacity="0.64"/>
    <circle cx="51.0" cy="442.7" r="0.61" opacity="0.72"/>
    <circle cx="285.7" cy="354.2" r="0.43" opacity="0.61"/>
    <circle cx="301.0" cy="60.8" r="0.79" opacity="0.66"/>
    <circle cx="147.4" cy="366.8" r="0.55" opacity="0.46"/>
    <circle cx="72.5" cy="370.2" r="0.41" opacity="0.41"/>
    <circle cx="47.6" cy="138.0" r="0.71" opacity="0.67"/>
    <circle cx="28.3" cy="90.6" r="0.78" opacity="0.41"/>
    <circle cx="95.1" cy="144.0" r="0.68" opacity="0.43"/>
    <circle cx="110.2" cy="152.6" r="0.48" opacity="0.69"/>
    <circle cx="84.3" cy="198.8" r="0.59" opacity="0.43"/>
    <circle cx="70.2" cy="235.3" r="0.52" opacity="0.62"/>
    <circle cx="81.3" cy="343.1" r="0.38" opacity="0.48"/>
    <circle cx="89.6" cy="392.6" r="0.75" opacity="0.40"/>
    <circle cx="252.2" cy="94.2" r="0.62" opacity="0.57"/>
    <circle cx="71.6" cy="49.7" r="0.41" opacity="0.48"/>
    <circle cx="55.2" cy="81.0" r="0.71" opacity="0.37"/>
    <circle cx="17.0" cy="161.1" r="0.60" opacity="0.46"/>
    <circle cx="84.7" cy="234.3" r="0.35" opacity="0.62"/>
    <circle cx="17.0" cy="452.3" r="0.62" opacity="0.71"/>
    <circle cx="108.3" cy="418.2" r="0.70" opacity="0.56"/>
    <circle cx="86.8" cy="434.1" r="0.46" opacity="0.78"/>
    <circle cx="254.4" cy="109.9" r="0.39" opacity="0.85"/>
    <circle cx="148.3" cy="118.8" r="0.68" opacity="0.83"/>
    <circle cx="102.4" cy="459.7" r="0.79" opacity="0.81"/>
    <circle cx="26.5" cy="441.2" r="0.44" opacity="0.83"/>
    <circle cx="41.4" cy="51.5" r="0.72" opacity="0.57"/>
    <circle cx="197.3" cy="153.9" r="0.50" opacity="0.36"/>
    <circle cx="196.7" cy="22.9" r="0.55" opacity="0.79"/>
    <circle cx="27.5" cy="240.6" r="0.59" opacity="0.56"/>
    <circle cx="37.5" cy="125.1" r="0.47" opacity="0.43"/>
    <circle cx="251.7" cy="70.7" r="0.41" opacity="0.83"/>
    <circle cx="199.0" cy="390.3" r="0.76" opacity="0.76"/>
    <circle cx="41.6" cy="431.7" r="0.73" opacity="0.54"/>
    <circle cx="145.0" cy="389.8" r="0.66" opacity="0.36"/>
    <circle cx="277.2" cy="140.3" r="0.71" opacity="0.75"/>
    <circle cx="243.6" cy="28.4" r="0.49" opacity="0.63"/>
    <circle cx="274.4" cy="270.8" r="0.57" opacity="0.84"/>
    <circle cx="219.5" cy="430.6" r="0.69" opacity="0.66"/>
    <circle cx="57.2" cy="211.1" r="0.55" opacity="0.82"/>
    <circle cx="141.3" cy="73.5" r="0.41" opacity="0.69"/>
    <circle cx="167.4" cy="207.1" r="0.83" opacity="0.54"/>
    <circle cx="185.5" cy="74.0" r="0.64" opacity="0.68"/>
    <circle cx="255.0" cy="285.7" r="0.51" opacity="0.61"/>
    <circle cx="41.0" cy="343.1" r="0.53" opacity="0.45"/>
    <circle cx="100.4" cy="236.9" r="0.63" opacity="0.44"/>
    <circle cx="125.4" cy="370.8" r="0.48" opacity="0.43"/>
    <circle cx="62.9" cy="36.4" r="0.37" opacity="0.77"/>
    <circle cx="271.6" cy="33.2" r="0.54" opacity="0.83"/>
    <circle cx="328.1" cy="25.2" r="0.40" opacity="0.43"/>
    <circle cx="54.2" cy="139.9" r="0.43" opacity="0.78"/>
    <circle cx="326.8" cy="110.2" r="0.60" opacity="0.36"/>
    <circle cx="254.5" cy="456.9" r="0.66" opacity="0.61"/>
    <circle cx="290.0" cy="41.2" r="0.41" opacity="0.66"/>
    <circle cx="333.9" cy="356.6" r="0.53" opacity="0.73"/>
    <circle cx="234.2" cy="404.1" r="0.83" opacity="0.76"/>
    <circle cx="236.3" cy="89.7" r="0.55" opacity="0.73"/>
    <circle cx="203.2" cy="53.7" r="0.58" opacity="0.83"/>
    <circle cx="24.1" cy="104.2" r="0.54" opacity="0.56"/>
    <circle cx="303.1" cy="186.6" r="0.81" opacity="0.78"/>
    <circle cx="307.4" cy="295.1" r="0.57" opacity="0.46"/>
    <circle cx="24.7" cy="426.6" r="0.72" opacity="0.71"/>
  </g>
  <circle cx="65" cy="60" r="1.05" opacity="0.7"/>
  <circle cx="102" cy="79" r="0.9" opacity="0.65"/>
  <circle cx="285" cy="61" r="1.2" opacity="0.85"/>
  <circle cx="315" cy="157" r="1.05" opacity="0.75"/>
  <circle cx="277" cy="182" r="0.8" opacity="0.6"/>
  <circle cx="54" cy="222" r="1.1" opacity="0.8"/>
  <circle cx="81" cy="267" r="0.95" opacity="0.7"/>
  <circle cx="27" cy="339" r="1.15" opacity="0.75"/>
  <circle cx="90" cy="412" r="1.1" opacity="0.85"/>
  <circle cx="133" cy="441" r="0.9" opacity="0.6"/>
  <circle cx="273" cy="419" r="1.2" opacity="0.8"/>
  <circle cx="311" cy="385" r="0.95" opacity="0.65"/>
  <use href="#glint" transform="translate(49 112) scale(0.9)" opacity="0.78"/>
  <use href="#glint" transform="translate(301 93) scale(1)" opacity="0.92"/>
  <use href="#glint" transform="translate(291 298) scale(0.85)" opacity="0.72"/>
  <use href="#glint" transform="translate(58 389) scale(1)" opacity="0.88"/>
  <use href="#glint" transform="translate(228 446) scale(0.72)" opacity="0.65"/>
</svg>
