<svg xmlns="http://www.w3.org/2000/svg" viewBox="0 0 630 880"><g fill="none" stroke="white">
<circle cx="101" cy="528" r="12" stroke-width="1.8" stroke-opacity="0.95"/>
<circle cx="101" cy="528" r="19" stroke-width="1.2" stroke-opacity="0.65"/>
<circle cx="101" cy="528" r="26" stroke-width="1.2" stroke-opacity="0.65"/>
<circle cx="101" cy="528" r="33" stroke-width="1.2" stroke-opacity="0.65"/>
<circle cx="101" cy="528" r="40" stroke-width="1.2" stroke-opacity="0.65"/>
<circle cx="101" cy="528" r="47" stroke-width="1.2" stroke-opacity="0.65"/>
<circle cx="101" cy="528" r="54" stroke-width="1.8" stroke-opacity="0.95"/>
<circle cx="101" cy="528" r="61" stroke-width="1.2" stroke-opacity="0.65"/>
<circle cx="101" cy="528" r="68" stroke-width="1.2" stroke-opacity="0.65"/>
<circle cx="101" cy="528" r="75" stroke-width="1.2" stroke-opacity="0.65"/>
<circle cx="101" cy="528" r="82" stroke-width="1.2" stroke-opacity="0.65"/>
<circle cx="101" cy="528" r="89" stroke-width="1.2" stroke-opacity="0.65"/>
<circle cx="101" cy="528" r="96" stroke-width="1.8" stroke-opacity="0.95"/>
<circle cx="101" cy="528" r="103" stroke-width="1.2" stroke-opacity="0.65"/>
<circle cx="101" cy="528" r="110" stroke-width="1.2" stroke-opacity="0.65"/>
<circle cx="101" cy="528" r="117" stroke-width="1.2" stroke-opacity="0.65"/>
<circle cx="101" cy="528" r="124" stroke-width="1.2" stroke-opacity="0.65"/>
<circle cx="101" cy="528" r="131" stroke-width="1.2" stroke-opacity="0.65"/>
<circle cx="101" cy="528" r="138" stroke-width="1.8" stroke-opacity="0.95"/>
<circle cx="101" cy="528" r="145" stroke-width="1.2" stroke-opacity="0.65"/>
<circle cx="101" cy="528" r="152" stroke-width="1.2" stroke-opacity="0.65"/>
<circle cx="101" cy="528" r="159" stroke-width="1.2" stroke-opacity="0.65"/>
<circle cx="101" cy="528" r="166" stroke-width="1.2" stroke-opacity="0.65"/>
<circle cx="101" cy="528" r="173" stroke-width="1.2" stroke-opacity="0.65"/>
<circle cx="101" cy="528" r="180" stroke-width="1.8" stroke-opacity="0.95"/>
<circle cx="101" cy="528" r="187" stroke-width="1.2" stroke-opacity="0.65"/>
<circle cx="101" cy="528" r="194" stroke-width="1.2" stroke-opacity="0.65"/>
<circle cx="101" cy="528" r="201" stroke-width="1.2" stroke-opacity="0.65"/>
<circle cx="101" cy="528" r="208" stroke-width="1.2" stroke-opacity="0.65"/>
<circle cx="101" cy="528" r="215" stroke-width="1.2" stroke-opacity="0.65"/>
<circle cx="101" cy="528" r="222" stroke-width="1.8" stroke-opacity="0.95"/>
<circle cx="101" cy="528" r="229" stroke-width="1.2" stroke-opacity="0.65"/>
<circle cx="101" cy="528" r="236" stroke-width="1.2" stroke-opacity="0.65"/>
<circle cx="101" cy="528" r="243" stroke-width="1.2" stroke-opacity="0.65"/>
<circle cx="101" cy="528" r="250" stroke-width="1.2" stroke-opacity="0.65"/>
<circle cx="101" cy="528" r="257" stroke-width="1.2" stroke-opacity="0.65"/>
<circle cx="101" cy="528" r="264" stroke-width="1.8" stroke-opacity="0.95"/>
<circle cx="101" cy="528" r="271" stroke-width="1.2" stroke-opacity="0.65"/>
<circle cx="101" cy="528" r="278" stroke-width="1.2" stroke-opacity="0.65"/>
<circle cx="101" cy="528" r="285" stroke-width="1.2" stroke-opacity="0.65"/>
<circle cx="101" cy="528" r="292" stroke-width="1.2" stroke-opacity="0.65"/>
<circle cx="101" cy="528" r="299" stroke-width="1.2" stroke-opacity="0.65"/>
<circle cx="101" cy="528" r="306" stroke-width="1.8" stroke-opacity="0.95"/>
<circle cx="101" cy="528" r="313" stroke-width="1.2" stroke-opacity="0.65"/>
<circle cx="101" cy="528" r="320" stroke-width="1.2" stroke-opacity="0.65"/>
<circle cx="101" cy="528" r="327" stroke-width="1.2" stroke-opacity="0.65"/>
<circle cx="101" cy="528" r="334" stroke-width="1.2" stroke-opacity="0.65"/>
<circle cx="101" cy="528" r="341" stroke-width="1.2" stroke-opacity="0.65"/>
<circle cx="101" cy="528" r="348" stroke-width="1.8" stroke-opacity="0.95"/>
<circle cx="101" cy="528" r="355" stroke-width="1.2" stroke-opacity="0.65"/>
<circle cx="101" cy="528" r="362" stroke-width="1.2" stroke-opacity="0.65"/>
<circle cx="101" cy="528" r="369" stroke-width="1.2" stroke-opacity="0.65"/>
<circle cx="101" cy="528" r="376" stroke-width="1.2" stroke-opacity="0.65"/>
<circle cx="101" cy="528" r="383" stroke-width="1.2" stroke-opacity="0.65"/>
<circle cx="101" cy="528" r="390" stroke-width="1.8" stroke-opacity="0.95"/>
<circle cx="101" cy="528" r="397" stroke-width="1.2" stroke-opacity="0.65"/>
<circle cx="101" cy="528" r="404" stroke-width="1.2" stroke-opacity="0.65"/>
<circle cx="101" cy="528" r="411" stroke-width="1.2" stroke-opacity="0.65"/>
<circle cx="101" cy="528" r="418" stroke-width="1.2" stroke-opacity="0.65"/>
<circle cx="101" cy="528" r="425" stroke-width="1.2" stroke-opacity="0.65"/>
<circle cx="101" cy="528" r="432" stroke-width="1.8" stroke-opacity="0.95"/>
<circle cx="101" cy="528" r="439" stroke-width="1.2" stroke-opacity="0.65"/>
<circle cx="101" cy="528" r="446" stroke-width="1.2" stroke-opacity="0.65"/>
<circle cx="101" cy="528" r="453" stroke-width="1.2" stroke-opacity="0.65"/>
<circle cx="101" cy="528" r="460" stroke-width="1.2" stroke-opacity="0.65"/>
<circle cx="101" cy="528" r="467" stroke-width="1.2" stroke-opacity="0.65"/>
<circle cx="101" cy="528" r="474" stroke-width="1.8" stroke-opacity="0.95"/>
<circle cx="101" cy="528" r="481" stroke-width="1.2" stroke-opacity="0.65"/>
<circle cx="101" cy="528" r="488" stroke-width="1.2" stroke-opacity="0.65"/>
<circle cx="101" cy="528" r="495" stroke-width="1.2" stroke-opacity="0.65"/>
<circle cx="101" cy="528" r="502" stroke-width="1.2" stroke-opacity="0.65"/>
<circle cx="101" cy="528" r="509" stroke-width="1.2" stroke-opacity="0.65"/>
<circle cx="101" cy="528" r="516" stroke-width="1.8" stroke-opacity="0.95"/>
<circle cx="101" cy="528" r="523" stroke-width="1.2" stroke-opacity="0.65"/>
<circle cx="101" cy="528" r="530" stroke-width="1.2" stroke-opacity="0.65"/>
<circle cx="101" cy="528" r="537" stroke-width="1.2" stroke-opacity="0.65"/>
<circle cx="101" cy="528" r="544" stroke-width="1.2" stroke-opacity="0.65"/>
<circle cx="101" cy="528" r="551" stroke-width="1.2" stroke-opacity="0.65"/>
<circle cx="101" cy="528" r="558" stroke-width="1.8" stroke-opacity="0.95"/>
<circle cx="101" cy="528" r="565" stroke-width="1.2" stroke-opacity="0.65"/>
<circle cx="101" cy="528" r="572" stroke-width="1.2" stroke-opacity="0.65"/>
<circle cx="101" cy="528" r="579" stroke-width="1.2" stroke-opacity="0.65"/>
<circle cx="101" cy="528" r="586" stroke-width="1.2" stroke-opacity="0.65"/>
<circle cx="101" cy="528" r="593" stroke-width="1.2" stroke-opacity="0.65"/>
<circle cx="101" cy="528" r="600" stroke-width="1.8" stroke-opacity="0.95"/>
<circle cx="101" cy="528" r="607" stroke-width="1.2" stroke-opacity="0.65"/>
<circle cx="101" cy="528" r="614" stroke-width="1.2" stroke-opacity="0.65"/>
<circle cx="101" cy="528" r="621" stroke-width="1.2" stroke-opacity="0.65"/>
<circle cx="101" cy="528" r="628" stroke-width="1.2" stroke-opacity="0.65"/>
<circle cx="101" cy="528" r="635" stroke-width="1.2" stroke-opacity="0.65"/>
<circle cx="101" cy="528" r="642" stroke-width="1.8" stroke-opacity="0.95"/>
<circle cx="101" cy="528" r="649" stroke-width="1.2" stroke-opacity="0.65"/>
<circle cx="101" cy="528" r="656" stroke-width="1.2" stroke-opacity="0.65"/>
<circle cx="101" cy="528" r="663" stroke-width="1.2" stroke-opacity="0.65"/>
<circle cx="101" cy="528" r="670" stroke-width="1.2" stroke-opacity="0.65"/>
<circle cx="101" cy="528" r="677" stroke-width="1.2" stroke-opacity="0.65"/>
<circle cx="101" cy="528" r="684" stroke-width="1.8" stroke-opacity="0.95"/>
<circle cx="101" cy="528" r="691" stroke-width="1.2" stroke-opacity="0.65"/>
<circle cx="101" cy="528" r="698" stroke-width="1.2" stroke-opacity="0.65"/>
<circle cx="101" cy="528" r="705" stroke-width="1.2" stroke-opacity="0.65"/>
<circle cx="101" cy="528" r="712" stroke-width="1.2" stroke-opacity="0.65"/>
<circle cx="101" cy="528" r="719" stroke-width="1.2" stroke-opacity="0.65"/>
<circle cx="101" cy="528" r="726" stroke-width="1.8" stroke-opacity="0.95"/>
<circle cx="101" cy="528" r="733" stroke-width="1.2" stroke-opacity="0.65"/>
<circle cx="101" cy="528" r="740" stroke-width="1.2" stroke-opacity="0.65"/>
<circle cx="101" cy="528" r="747" stroke-width="1.2" stroke-opacity="0.65"/>
<circle cx="101" cy="528" r="754" stroke-width="1.2" stroke-opacity="0.65"/>
<circle cx="101" cy="528" r="761" stroke-width="1.2" stroke-opacity="0.65"/>
<circle cx="101" cy="528" r="768" stroke-width="1.8" stroke-opacity="0.95"/>
<circle cx="101" cy="528" r="775" stroke-width="1.2" stroke-opacity="0.65"/>
<circle cx="101" cy="528" r="782" stroke-width="1.2" stroke-opacity="0.65"/>
<circle cx="101" cy="528" r="789" stroke-width="1.2" stroke-opacity="0.65"/>
<circle cx="101" cy="528" r="796" stroke-width="1.2" stroke-opacity="0.65"/>
<circle cx="101" cy="528" r="803" stroke-width="1.2" stroke-opacity="0.65"/>
<circle cx="101" cy="528" r="810" stroke-width="1.8" stroke-opacity="0.95"/>
<circle cx="101" cy="528" r="817" stroke-width="1.2" stroke-opacity="0.65"/>
<circle cx="101" cy="528" r="824" stroke-width="1.2" stroke-opacity="0.65"/>
<circle cx="101" cy="528" r="831" stroke-width="1.2" stroke-opacity="0.65"/>
<circle cx="101" cy="528" r="838" stroke-width="1.2" stroke-opacity="0.65"/>
<circle cx="101" cy="528" r="845" stroke-width="1.2" stroke-opacity="0.65"/>
<circle cx="101" cy="528" r="852" stroke-width="1.8" stroke-opacity="0.95"/>
<circle cx="101" cy="528" r="859" stroke-width="1.2" stroke-opacity="0.65"/>
<circle cx="101" cy="528" r="866" stroke-width="1.2" stroke-opacity="0.65"/>
<circle cx="101" cy="528" r="873" stroke-width="1.2" stroke-opacity="0.65"/>
<circle cx="101" cy="528" r="880" stroke-width="1.2" stroke-opacity="0.65"/>
<circle cx="101" cy="528" r="887" stroke-width="1.2" stroke-opacity="0.65"/>
<circle cx="101" cy="528" r="894" stroke-width="1.8" stroke-opacity="0.95"/>
<circle cx="101" cy="528" r="901" stroke-width="1.2" stroke-opacity="0.65"/>
<circle cx="101" cy="528" r="908" stroke-width="1.2" stroke-opacity="0.65"/>
<circle cx="101" cy="528" r="915" stroke-width="1.2" stroke-opacity="0.65"/>
<circle cx="101" cy="528" r="922" stroke-width="1.2" stroke-opacity="0.65"/>
<circle cx="101" cy="528" r="929" stroke-width="1.2" stroke-opacity="0.65"/>
<circle cx="101" cy="528" r="936" stroke-width="1.8" stroke-opacity="0.95"/>
<circle cx="101" cy="528" r="943" stroke-width="1.2" stroke-opacity="0.65"/>
<circle cx="101" cy="528" r="950" stroke-width="1.2" stroke-opacity="0.65"/>
<circle cx="101" cy="528" r="957" stroke-width="1.2" stroke-opacity="0.65"/>
<circle cx="101" cy="528" r="964" stroke-width="1.2" stroke-opacity="0.65"/>
<circle cx="101" cy="528" r="971" stroke-width="1.2" stroke-opacity="0.65"/>
<circle cx="101" cy="528" r="978" stroke-width="1.8" stroke-opacity="0.95"/>
<circle cx="101" cy="528" r="985" stroke-width="1.2" stroke-opacity="0.65"/>
<circle cx="101" cy="528" r="992" stroke-width="1.2" stroke-opacity="0.65"/>
<circle cx="101" cy="528" r="999" stroke-width="1.2" stroke-opacity="0.65"/>
<circle cx="101" cy="528" r="1006" stroke-width="1.2" stroke-opacity="0.65"/>
<circle cx="101" cy="528" r="1013" stroke-width="1.2" stroke-opacity="0.65"/>
<circle cx="101" cy="528" r="1020" stroke-width="1.8" stroke-opacity="0.95"/>
<circle cx="101" cy="528" r="1027" stroke-width="1.2" stroke-opacity="0.65"/>
<circle cx="101" cy="528" r="1034" stroke-width="1.2" stroke-opacity="0.65"/>
<circle cx="101" cy="528" r="1041" stroke-width="1.2" stroke-opacity="0.65"/>
<circle cx="101" cy="528" r="1048" stroke-width="1.2" stroke-opacity="0.65"/>
<circle cx="101" cy="528" r="1055" stroke-width="1.2" stroke-opacity="0.65"/>
<circle cx="101" cy="528" r="1062" stroke-width="1.8" stroke-opacity="0.95"/>
<circle cx="101" cy="528" r="1069" stroke-width="1.2" stroke-opacity="0.65"/>
<circle cx="101" cy="528" r="1076" stroke-width="1.2" stroke-opacity="0.65"/>
<circle cx="101" cy="528" r="1083" stroke-width="1.2" stroke-opacity="0.65"/>
<circle cx="101" cy="528" r="1090" stroke-width="1.2" stroke-opacity="0.65"/>
<circle cx="101" cy="528" r="1097" stroke-width="1.2" stroke-opacity="0.65"/>
</g></svg>
